<?xml version="1.0" standalone="no"?><!DOCTYPE svg PUBLIC "-//W3C//DTD SVG 1.1//EN" "http://www.w3.org/Graphics/SVG/1.1/DTD/svg11.dtd"><svg t="1628645285375" class="icon" viewBox="0 0 1024 1024" version="1.1" xmlns="http://www.w3.org/2000/svg" p-id="1351" xmlns:xlink="http://www.w3.org/1999/xlink" width="200" height="200"><defs><style type="text/css"></style></defs><path d="M511.35488 510.83776m-493.21984 0a493.21984 493.21984 0 1 0 986.43968 0 493.21984 493.21984 0 1 0-986.43968 0Z" fill="#F2F2F2" p-id="1352"></path><path d="M513.04448 1004.0576c116.1216 0 222.79168-40.23296 307.05664-107.38176-7.13216-67.26144-21.60128-157.27616-48.5376-243.4816-50.46272-161.47968-154.74688-470.97344-195.11808-464.24576-40.3712 6.72768-40.3712 107.65312-40.3712 107.65312H486.34368s0-100.92544-40.3712-107.65312-144.65536 302.7712-195.11808 464.24576c-26.58816 85.07392-41.02144 173.85984-48.25088 240.8192 84.77696 68.77696 192.77312 110.04416 310.44096 110.04416z" fill="#8A8A8A" p-id="1353"></path><path d="M404.62848 295.31648l62.17216-4.1472s0-87.04-16.57856-87.04-53.88288 74.60352-45.5936 91.1872zM620.34944 292.55168l-62.17216-4.1472s0-87.04 16.57856-87.04c16.57856 0.00512 53.88288 74.60864 45.5936 91.1872z" fill="#AAA5A5" p-id="1354"></path><path d="M618.70592 441.2416c-0.6912-5.52448 0 0-22.10304 6.90688s-82.2016 6.90688-82.2016 6.90688-1.3824-8.98048 4.1472-10.36288c5.52448-1.3824 26.94144-16.57856 24.17664-27.63264-2.5856-10.33728-29.32224-6.17472-32.77824-5.59104-3.456-0.58368-30.19776-4.74624-32.77824 5.59104-2.7648 11.05408 18.65216 26.25024 24.17664 27.63264 5.52448 1.3824 4.1472 10.36288 4.1472 10.36288s-60.09856 0-82.2016-6.90688-21.41184-12.43648-22.10304-6.90688c-0.6912 5.52448 2.75456 21.15584 75.98592 22.10304 22.00064 0.28672 30.19264 0.56832 32.39936 0.66048v0.03072l0.37888-0.01536 0.37888 0.01536v-0.03072c2.20672-0.09216 10.39872-0.37376 32.39936-0.66048 73.216-0.9472 76.66688-16.57856 75.97568-22.10304z" fill="#303030" p-id="1355"></path><path d="M410.496 351.44192a24.35072 8.8064 0 1 0 48.70144 0 24.35072 8.8064 0 1 0-48.70144 0Z" fill="#F2F2F2" p-id="1356"></path><path d="M431.56992 350.91968a8.8064 8.28928 0 1 0 17.6128 0 8.8064 8.28928 0 1 0-17.6128 0Z" fill="#303030" p-id="1357"></path><path d="M545.88928 351.44192a24.35072 8.8064 0 1 0 48.70144 0 24.35072 8.8064 0 1 0-48.70144 0Z" fill="#F2F2F2" p-id="1358"></path><path d="M566.9632 350.91968a8.8064 8.28928 0 1 0 17.6128 0 8.8064 8.28928 0 1 0-17.6128 0Z" fill="#303030" p-id="1359"></path><path d="M393.22624 391.16288a2.59584 2.59584 0 0 1-2.59072 2.59072H284.94848a2.59584 2.59584 0 0 1 0-5.18144h105.69216c1.42848 0 2.5856 1.15712 2.5856 2.59072zM393.22624 435.71712a2.59584 2.59584 0 0 1-2.59072 2.59072H284.94848a2.59584 2.59584 0 0 1 0-5.18144h105.69216c1.42848 0 2.5856 1.15712 2.5856 2.59072zM393.22624 413.44a2.59584 2.59584 0 0 1-2.59072 2.59072H284.94848a2.59584 2.59584 0 0 1 0-5.18144h105.69216c1.42848 0 2.5856 1.15712 2.5856 2.59072zM740.34688 391.16288a2.59584 2.59584 0 0 1-2.59072 2.59072H632.064a2.59584 2.59584 0 0 1 0-5.18144h105.69216c1.4336 0 2.59072 1.15712 2.59072 2.59072zM740.34688 435.71712a2.59584 2.59584 0 0 1-2.59072 2.59072H632.064a2.59584 2.59584 0 0 1 0-5.18144h105.69216c1.4336 0 2.59072 1.15712 2.59072 2.59072zM740.34688 413.44a2.59584 2.59584 0 0 1-2.59072 2.59072H632.064a2.59584 2.59584 0 0 1 0-5.18144h105.69216c1.4336 0 2.59072 1.15712 2.59072 2.59072z" fill="#303030" p-id="1360"></path><path d="M511.35488 561.65888c-112.92672 0-204.47232 91.5456-204.47232 204.47232v194.18112a491.19744 491.19744 0 0 0 203.01824 43.7504 491.1872 491.1872 0 0 0 205.9264-45.06112v-192.86528c0-112.93184-91.5456-204.47744-204.47232-204.47744z" fill="#AAA5A5" p-id="1361"></path></svg>