<?xml version="1.0" standalone="no"?><!DOCTYPE svg PUBLIC "-//W3C//DTD SVG 1.1//EN" "http://www.w3.org/Graphics/SVG/1.1/DTD/svg11.dtd"><svg t="1628651620464" class="icon" viewBox="0 0 1024 1024" version="1.1" xmlns="http://www.w3.org/2000/svg" p-id="4200" xmlns:xlink="http://www.w3.org/1999/xlink" width="200" height="200"><defs><style type="text/css"></style></defs><path d="M910.6 847.8H175.1c-27.4 0-49.6-22.3-49.6-49.6V302.6c0-27.4 22.3-49.6 49.6-49.6h735.4c27.4 0 49.6 22.3 49.6 49.6v495.6c0.1 27.3-22.2 49.6-49.5 49.6z" fill="#A7B8C6" p-id="4201"></path><path d="M864.1 784.6H152.8c-26.5 0-48-21.5-48-47.9V258.5c0-26.4 21.5-47.9 48-47.9h711.3c26.5 0 48 21.5 48 47.9v478.2c0 26.4-21.6 47.9-48 47.9z" fill="#A57E63" p-id="4202"></path><path d="M862.4 798.2H127c-34.8 0-63.2-28.3-63.2-63.2V239.4c0-34.8 28.3-63.2 63.2-63.2h735.4c34.8 0 63.2 28.3 63.2 63.2V735c0 34.8-28.3 63.2-63.2 63.2zM127 203.3c-19.9 0-36.1 16.2-36.1 36.1V735c0 19.9 16.2 36.1 36.1 36.1h735.4c19.9 0 36.1-16.2 36.1-36.1V239.4c0-19.9-16.2-36.1-36.1-36.1H127z" fill="#3E3A39" p-id="4203"></path><path d="M839.8 408.1H149.6c-11.7 0-21.2-9.5-21.2-21.2V268.5c0-11.7 9.5-21.2 21.2-21.2h690.1c11.7 0 21.2 9.5 21.2 21.2V387c0 11.7-9.5 21.1-21.1 21.1z" fill="#3E3A39" p-id="4204"></path><path d="M860.9 276.3h-30L697.6 409.7h51.3l112-112zM613.2 409.7h51.3l133.3-133.4h-51.2z" fill="#BEBFBF" p-id="4205"></path><path d="M860.9 278.8H128.5v-10.3c0-11.7 9.5-21.2 21.2-21.2h690.1c11.7 0 21.2 9.5 21.2 21.2v10.3z" fill="#717071" p-id="4206"></path><path d="M482.4 440.3H151.2c-10.1 0-18.3 8.2-18.3 18.3V574c0 4.3 3.5 7.8 7.8 7.8h341.7c4.3 0 7.8-3.5 7.8-7.8V448.1c0-4.3-3.5-7.8-7.8-7.8zM132.9 607.4v115.4c0 10.1 8.2 18.3 18.3 18.3h331.2c4.3 0 7.8-3.5 7.8-7.8V607.4c0-4.3-3.5-7.8-7.8-7.8H140.7c-4.3 0-7.8 3.5-7.8 7.8zM865.4 574V458.6c0-10.1-8.2-18.3-18.3-18.3H515.9c-4.3 0-7.8 3.5-7.8 7.8V574c0 4.3 3.5 7.8 7.8 7.8h341.7c4.3 0 7.8-3.5 7.8-7.8z" fill="#916D52" p-id="4207"></path><path d="M515.9 741.2h331.2c10.1 0 18.3-8.2 18.3-18.3V607.5c0-4.3-3.5-7.8-7.8-7.8H515.9c-4.3 0-7.8 3.5-7.8 7.8v125.9c0 4.3 3.5 7.8 7.8 7.8zM340.7 511.1l12.1-12.2c8-8 8-21.1 0-29.1s-21.1-8-29.1 0L311.6 482l-12.2-12.1c-8-8-21.1-8-29.1 0s-8 21.1 0 29.1l12.1 12.2-12.1 12.1c-8 8-8 21.1 0 29.1s21.1 8 29.1 0l12.2-12.2 12.1 12.2c8 8 21.1 8 29.1 0s8-21.1 0-29.1l-12.1-12.2z m386-21.8h-80c-12 0-21.8 9.8-21.8 21.8s9.8 21.8 21.8 21.8h80c12 0 21.8-9.8 21.8-21.8s-9.8-21.8-21.8-21.8zM362.8 690.9H260.3c-3.7 0-6.8-3.1-6.8-6.8v-27.3c0-3.7 3.1-6.8 6.8-6.8h102.5c3.7 0 6.8 3.1 6.8 6.8v27.3c0.1 3.7-3 6.8-6.8 6.8z" fill="#FBF7EC" p-id="4208"></path><path d="M291.1 721.7V619.2c0-3.7 3.1-6.8 6.8-6.8h27.3c3.7 0 6.8 3.1 6.8 6.8v102.5c0 3.7-3.1 6.8-6.8 6.8h-27.3c-3.7 0-6.8-3.1-6.8-6.8z" fill="#FBF7EC" p-id="4209"></path><path d="M726.7 620.1h-80c-12 0-21.8 9.8-21.8 21.8s9.8 21.8 21.8 21.8h80c12 0 21.8-9.8 21.8-21.8s-9.8-21.8-21.8-21.8z m0 57.1h-80c-12 0-21.8 9.8-21.8 21.8s9.8 21.8 21.8 21.8h80c12 0 21.8-9.8 21.8-21.8s-9.8-21.8-21.8-21.8z" fill="#916D52" p-id="4210"></path><path d="M839.8 409.7H149.6c-12.5 0-22.7-10.2-22.7-22.7V268.5c0-12.5 10.2-22.7 22.7-22.7h690.1c12.5 0 22.7 10.2 22.7 22.7V387c0 12.5-10.1 22.7-22.6 22.7zM149.6 248.8c-10.8 0-19.7 8.8-19.7 19.7V387c0 10.8 8.8 19.7 19.7 19.7h690.1c10.8 0 19.7-8.8 19.7-19.7V268.5c0-10.8-8.8-19.7-19.7-19.7H149.6z" fill="#E9B18C" p-id="4211"></path></svg>